<?xml version="1.0" encoding="UTF-8"?>
<svg version="1.1" xmlns="http://www.w3.org/2000/svg" width="1080" height="1080">
<path d="M0 0 C1.04043457 0.48509033 2.08086914 0.97018066 3.15283203 1.4699707 C4.29220215 2.008396 5.43157227 2.54682129 6.60546875 3.1015625 C7.83169878 3.67638755 9.05810396 4.25083911 10.28466797 4.82495117 C22.74106227 10.66573015 35.16079724 16.58533198 47.58374023 22.49682617 C58.43399097 27.65979624 69.29361785 32.8020443 80.16796875 37.9140625 C81.20407288 38.40117706 81.20407288 38.40117706 82.2611084 38.89813232 C85.72332106 40.5256777 89.1857976 42.15266067 92.6484375 43.77929688 C99.65623198 47.07148826 106.66217256 50.36762136 113.66796875 53.6640625 C114.36155487 53.99039673 115.05514099 54.31673096 115.76974487 54.6529541 C125.5252814 59.24329472 135.27803328 63.83950724 145.02685547 68.4440918 C148.12466938 69.90703507 151.22402214 71.36663854 154.32470703 72.82348633 C160.58148023 75.76638921 166.8264907 78.71684393 173 81.83203125 C173.87599854 82.26845947 174.75199707 82.7048877 175.65454102 83.15454102 C177.16754783 83.91282297 178.67311577 84.68629416 180.16772461 85.48022461 C186.20669788 88.4880122 191.13290687 87.52173264 197.3269043 85.67016602 C199.11028198 85.01939087 199.11028198 85.01939087 200.9296875 84.35546875 C202.30625353 83.86281673 203.68305493 83.370822 205.06005859 82.87939453 C205.77877136 82.62015198 206.49748413 82.36090942 207.23797607 82.09381104 C271.23759404 59.12669085 354.50353977 37.09988195 419.89453125 65.82714844 C436.12124943 73.51480659 452.14930918 85.43126988 461.79296875 100.7265625 C458.19491422 99.38246167 454.82843396 97.74072421 451.42773438 95.9597168 C433.49154328 86.62775537 414.02261 81.70940774 393.75390625 81.48828125 C393.00344025 81.4784874 392.25297424 81.46869354 391.47976685 81.45860291 C371.89298619 81.25648413 353.13129804 82.31114502 333.79296875 85.7265625 C332.58302246 85.93555176 331.37307617 86.14454102 330.12646484 86.35986328 C298.49396043 91.93764606 268.09362445 101.24252972 237.79296875 111.7265625 C252.55331235 118.92215497 267.31915954 126.09766818 282.23046875 132.9765625 C293.66459104 138.25143372 305.04805152 143.62730735 316.41796875 149.0390625 C332.41538427 156.65187059 348.43231002 164.22154992 364.46781921 171.75375366 C369.67309944 174.19911422 374.87596187 176.6495787 380.078125 179.1015625 C382.3854181 180.18873033 384.69273679 181.27584383 387.00006104 182.36294556 C388.46041903 183.05116369 389.920669 183.7396111 391.38079834 184.42831421 C399.49163844 188.25369669 407.61495203 192.04618649 415.79296875 195.7265625 C415.23402039 206.88162351 413.73150837 217.77023154 411.98046875 228.7890625 C411.84436188 229.64696381 411.708255 230.50486511 411.56802368 231.38876343 C411.02037014 234.83165598 410.47091684 238.27422383 409.91337585 241.7155304 C409.16626596 246.33304039 408.46859552 250.95269748 407.82421875 255.5859375 C406.25126821 266.19429286 404.19478493 272.46979792 395.79296875 279.7265625 C394.60285037 281.03900569 393.43475184 282.37185948 392.29296875 283.7265625 C388.18066109 288.44251165 383.99523666 293.09072726 379.79296875 297.7265625 C379.11862793 298.47075439 379.11862793 298.47075439 378.43066406 299.22998047 C373.56209576 304.59551335 368.67885016 309.91718358 363.49975586 314.98730469 C361.82888198 316.68996604 360.2864276 318.4518595 358.7421875 320.26953125 C354.18175694 325.51012089 349.27627393 330.38924156 344.35546875 335.2890625 C343.45248047 336.19591797 342.54949219 337.10277344 341.61914062 338.03710938 C337.05798149 342.59166292 332.43815985 346.99391465 327.54663086 351.19116211 C324.99932921 353.42142524 322.65857896 355.80394963 320.29296875 358.2265625 C316.65737739 361.91145213 312.94683908 365.43392154 309.0078125 368.79296875 C306.67960537 370.82553053 304.42137214 372.92056321 302.16308594 375.0300293 C296.75704868 380.0791677 291.24397636 384.88184045 285.47265625 389.515625 C282.6604356 391.835912 279.97499612 394.25727384 277.29296875 396.7265625 C272.89918327 400.76611068 268.37458051 404.57335869 263.73046875 408.3203125 C260.42942818 411.02435637 257.2054823 413.80785775 253.98046875 416.6015625 C248.23400154 421.56277866 242.34190614 426.29610511 236.34765625 430.953125 C233.31959966 433.30642436 230.32533231 435.69897276 227.33886719 438.10473633 C218.6088383 445.13624015 209.73287379 451.9645705 200.79296875 458.7265625 C199.99697266 459.32903809 199.20097656 459.93151367 198.38085938 460.55224609 C187.35099148 468.88983536 176.22835775 477.08416395 164.99316406 485.14257812 C162.80294301 486.71938174 160.62103181 488.30702701 158.44140625 489.8984375 C146.73323684 498.43591653 134.81512252 506.63826333 122.79296875 514.7265625 C122.21812744 515.11344238 121.64328613 515.50032227 121.05102539 515.89892578 C105.24519972 526.53274944 89.37419455 537.04079349 73.24560547 547.18115234 C70.89292905 548.66357736 68.5469406 550.15595814 66.203125 551.65234375 C44.98717495 565.17691119 23.47993009 578.10638031 1.44775391 590.25732422 C-1.51282597 591.89579853 -4.45867385 593.55875736 -7.40112305 595.22949219 C-181.08731639 693.7265625 -181.08731639 693.7265625 -227.20703125 693.7265625 C-229.12126374 691.36708922 -230.92558346 688.99618402 -232.70703125 686.5390625 C-233.80514959 685.04625673 -234.90411788 683.55407584 -236.00390625 682.0625 C-236.54982422 681.31967773 -237.09574219 680.57685547 -237.65820312 679.81152344 C-239.70622142 677.05457573 -241.83111721 674.36122554 -243.95703125 671.6640625 C-266.26962663 642.75095659 -285.95683733 611.32193454 -304.20703125 579.7265625 C-304.74714844 578.79199219 -305.28726563 577.85742188 -305.84375 576.89453125 C-313.51737931 563.57048605 -320.77588508 550.06585972 -327.81787109 536.39892578 C-329.11072015 533.91183866 -330.42698884 531.43958688 -331.7578125 528.97265625 C-338.83312769 515.82838622 -345.05798633 502.32547309 -351.20703125 488.7265625 C-359.14841007 495.41208206 -366.4890361 502.58121912 -373.23828125 510.4765625 C-375.28476111 512.81539662 -377.39096233 515.08713844 -379.51220703 517.35791016 C-384.50604703 522.70590117 -389.28462887 528.14591559 -393.8671875 533.85546875 C-396.06552151 536.55292367 -398.31742551 539.18957876 -400.59741211 541.81762695 C-406.75329905 548.91579105 -412.61071527 556.17794859 -418.20703125 563.7265625 C-418.935271 564.70786133 -418.935271 564.70786133 -419.67822266 565.70898438 C-432.0293666 582.4264583 -444.01638113 599.59043764 -454.20703125 617.7265625 C-454.63580566 618.48839844 -455.06458008 619.25023437 -455.50634766 620.03515625 C-471.06823461 647.99024513 -486.40769189 682.27210899 -477.80224609 714.80810547 C-472.47255635 731.98640817 -460.23232806 745.01247619 -444.53125 753.28515625 C-436.40775527 757.33386168 -428.27384131 760.68017751 -419.48046875 762.97265625 C-418.35511719 763.34583984 -418.35511719 763.34583984 -417.20703125 763.7265625 C-416.87703125 764.3865625 -416.54703125 765.0465625 -416.20703125 765.7265625 C-432.01203688 764.88664496 -446.98657089 763.1519962 -462.20703125 758.7265625 C-462.8726709 758.53723145 -463.53831055 758.34790039 -464.22412109 758.15283203 C-483.03103948 752.64681074 -499.33719866 741.13433656 -509.33203125 724.171875 C-521.02869142 702.67926194 -518.07979967 677.60336865 -511.60546875 654.89453125 C-498.08378314 613.01457851 -472.4086595 575.59463418 -446.20703125 540.7265625 C-445.52495605 539.81849854 -445.52495605 539.81849854 -444.82910156 538.89208984 C-438.32824441 530.27008445 -431.53063142 521.89612258 -424.69091797 513.54248047 C-423.4006993 511.96356529 -422.11767537 510.37877623 -420.8359375 508.79296875 C-412.22191922 498.1558416 -403.23389286 487.83679608 -393.94311523 477.78662109 C-390.99686315 474.59929731 -388.1283342 471.36111534 -385.3125 468.05859375 C-383.46783765 466.01543341 -381.57313405 464.06456789 -379.6328125 462.11328125 C-378.98932861 461.45497314 -378.34584473 460.79666504 -377.68286133 460.1184082 C-376.38310725 458.79167294 -375.06936916 457.47847011 -373.7409668 456.18041992 C-373.14195557 455.56400635 -372.54294434 454.94759277 -371.92578125 454.3125 C-371.37857422 453.7664209 -370.83136719 453.2203418 -370.26757812 452.65771484 C-368.65998758 449.73044937 -369.38808856 447.90977821 -370.20703125 444.7265625 C-370.98295518 442.40636407 -371.81684475 440.10515842 -372.69140625 437.8203125 C-373.21311513 436.44333221 -373.73467374 435.06629499 -374.25610352 433.68920898 C-374.53269806 432.96450409 -374.8092926 432.23979919 -375.0942688 431.49313354 C-387.82451819 398.04938014 -398.87000157 364.27375095 -408.20703125 329.7265625 C-408.4021228 329.00678223 -408.59721436 328.28700195 -408.79821777 327.54541016 C-420.37809324 284.69810454 -429.90223158 240.05646154 -433.20703125 195.7265625 C-432.55782715 195.4270166 -431.90862305 195.1274707 -431.23974609 194.81884766 C-416.31727444 187.92698456 -401.43248553 180.95973073 -386.58203125 173.9140625 C-385.37731171 173.34250427 -385.37731171 173.34250427 -384.14825439 172.75939941 C-383.3408783 172.37634644 -382.5335022 171.99329346 -381.70166016 171.59863281 C-380.07064942 170.82484577 -378.43962729 170.05108273 -376.80859375 169.27734375 C-376.00314117 168.8952475 -375.1976886 168.51315125 -374.36782837 168.11947632 C-366.23827663 164.26447319 -358.09901283 160.43022959 -349.95703125 156.6015625 C-348.91560974 156.11178925 -348.91560974 156.11178925 -347.85314941 155.61212158 C-344.36352094 153.97105799 -340.87371905 152.33036368 -337.38378906 150.68994141 C-330.36582948 147.39115145 -323.34878742 144.0904113 -316.33203125 140.7890625 C-315.63364136 140.46049255 -314.93525146 140.13192261 -314.21569824 139.793396 C-303.20815572 134.61428985 -292.20635222 129.42310375 -281.20703125 124.2265625 C-269.5028001 118.69699207 -257.79521386 113.17464778 -246.08203125 107.6640625 C-245.3836615 107.33550262 -244.68529175 107.00694275 -243.96575928 106.66842651 C-238.34497404 104.02415748 -232.7238858 101.38053279 -227.1027832 98.73693848 C-222.17905585 96.42128454 -217.25545165 94.105369 -212.33203125 91.7890625 C-211.63382263 91.46058319 -210.93561401 91.13210388 -210.21624756 90.79367065 C-199.20852348 85.61446974 -188.20653723 80.42319115 -177.20703125 75.2265625 C-161.28707962 67.70530864 -145.35777966 60.20406865 -129.42480469 52.71044922 C-125.18789337 50.71766986 -120.95131871 48.72417556 -116.71484375 46.73046875 C-116.01319092 46.40026733 -115.31153809 46.07006592 -114.58862305 45.7298584 C-112.46142025 44.72877151 -110.33422437 43.72766994 -108.20703125 42.7265625 C-92.58837537 35.3760533 -92.58837537 35.3760533 -84.88371277 31.75239563 C-81.36640609 30.09812025 -77.84921479 28.44359965 -74.33203125 26.7890625 C-73.29645584 26.30196304 -73.29645584 26.30196304 -72.23995972 25.80502319 C-63.97406918 21.91670333 -55.71141003 18.02163661 -47.453125 14.1171875 C-46.64129761 13.73344467 -45.82947021 13.34970184 -44.99304199 12.95433044 C-41.07638932 11.10288201 -37.16013989 9.25059021 -33.24462891 7.39672852 C-30.47338294 6.0846693 -27.69913265 4.7793277 -24.92236328 3.47900391 C-22.56999492 2.37630532 -20.23891107 1.24759174 -17.90966797 0.09521484 C-16.46164795 -0.60740479 -16.46164795 -0.60740479 -14.984375 -1.32421875 C-13.76415649 -1.93197144 -13.76415649 -1.93197144 -12.51928711 -2.55200195 C-7.93140829 -3.9834434 -4.16323915 -1.95249338 0 0 Z M-37.86132812 151.54296875 C-40.31923993 151.73534486 -42.74262296 151.75717627 -45.20703125 151.7265625 C-46.40541334 154.05510713 -46.40541334 154.05510713 -47.20703125 156.7265625 C-46.21703125 158.2115625 -46.21703125 158.2115625 -45.20703125 159.7265625 C-42.46754217 160.08702159 -40.78449377 160.02599856 -38.31713867 158.74658203 C-36.04521534 157.64834118 -34.32222832 157.33811443 -31.8203125 157.09375 C-30.97307617 157.00963867 -30.12583984 156.92552734 -29.25292969 156.83886719 C-28.3509082 156.76055664 -27.44888672 156.68224609 -26.51953125 156.6015625 C-25.58270508 156.5180957 -24.64587891 156.43462891 -23.68066406 156.34863281 C-10.62074733 155.26215417 1.88844178 155.49146549 14.875 157.21484375 C19.83710128 157.86293474 24.80637753 158.31729583 29.79296875 158.7265625 C30.12296875 157.4065625 30.45296875 156.0865625 30.79296875 154.7265625 C11.08949916 145.28531665 -16.96168333 149.36417659 -37.86132812 151.54296875 Z M47.79296875 157.7265625 C46.07585632 160.17152293 46.07585632 160.17152293 44.79296875 162.7265625 C45.88040163 164.84578377 45.88040163 164.84578377 47.79296875 166.7265625 C49.04400391 166.66662109 49.04400391 166.66662109 50.3203125 166.60546875 C55.19384326 166.77541189 58.85425131 168.62138257 63.23046875 170.6640625 C64.11210693 171.06939209 64.99374512 171.47472168 65.90209961 171.89233398 C108.64163447 191.9324184 140.68199836 227.9572903 156.83984375 272.15234375 C162.11670883 287.45442884 165.45780002 303.44625083 166.33837891 319.62402344 C166.88634901 322.15845874 167.82875737 323.09201356 169.79296875 324.7265625 C170.45296875 324.3965625 171.11296875 324.0665625 171.79296875 323.7265625 C173.89503349 284.72158336 154.58875442 241.77230014 128.98046875 213.1640625 C127.5854924 211.6840876 126.18973309 210.20485005 124.79296875 208.7265625 C123.64232848 207.37647792 122.49629915 206.02244661 121.35546875 204.6640625 C105.03978633 186.08643319 82.08252206 171.46485838 59.03344727 162.86791992 C55.58792855 161.57344491 53.29402979 160.41082228 50.79296875 157.7265625 C49.80296875 157.7265625 48.81296875 157.7265625 47.79296875 157.7265625 Z M-118.20703125 186.7265625 C-118.73425781 187.1395459 -119.26148438 187.5525293 -119.8046875 187.97802734 C-141.15499529 204.90221174 -157.39404189 224.75557294 -170.20703125 248.7265625 C-170.5510498 249.36916016 -170.89506836 250.01175781 -171.24951172 250.67382812 C-180.07624845 267.50473831 -184.79005483 286.136047 -188.20703125 304.7265625 C-188.42101562 305.87640625 -188.635 307.02625 -188.85546875 308.2109375 C-189.18295346 310.00498419 -189.50380165 311.80028176 -189.8125 313.59765625 C-190.20703125 315.7265625 -190.20703125 315.7265625 -190.8828125 317.82421875 C-191.48639958 320.05133431 -191.48639958 320.05133431 -189.20703125 322.7265625 C-186.70703125 323.2265625 -186.70703125 323.2265625 -184.20703125 322.7265625 C-181.86054876 319.96519857 -181.86054876 319.96519857 -182.6796875 317.234375 C-183.44065414 312.17253763 -182.51378152 307.61445096 -181.64453125 302.6015625 C-181.46180664 301.5398584 -181.27908203 300.4781543 -181.09082031 299.38427734 C-174.71810065 264.14471765 -157.03452829 226.95596362 -129.28515625 203.49609375 C-127.89610087 202.31330787 -126.53108988 201.10170972 -125.19140625 199.86328125 C-109.48780225 185.35198792 -91.04488322 175.3451791 -71.31640625 167.41796875 C-67.85265975 166.02306992 -64.52111052 164.45220569 -61.20703125 162.7265625 C-61.53703125 161.4065625 -61.86703125 160.0865625 -62.20703125 158.7265625 C-80.54075532 158.7265625 -104.21354066 175.70202981 -118.20703125 186.7265625 Z M-114.20703125 222.7265625 C-113.87703125 223.7165625 -113.54703125 224.7065625 -113.20703125 225.7265625 C-112.21703125 226.0565625 -111.22703125 226.3865625 -110.20703125 226.7265625 C-109.34078125 225.7778125 -108.47453125 224.8290625 -107.58203125 223.8515625 C-81.58097623 198.00651381 -44.01884107 186.32477289 -8.14453125 185.4765625 C8.8139601 185.88090241 38.03771899 186.97131274 50.79296875 199.7265625 C53.33486877 199.9766398 53.33486877 199.9766398 55.79296875 199.7265625 C57.14915374 198.60122145 57.14915374 198.60122145 56.85546875 195.6640625 C56.82453125 194.21 56.82453125 194.21 56.79296875 192.7265625 C54.28866549 191.22398054 52.49292109 190.68742585 49.55859375 190.3046875 C45.80400386 189.72825669 42.66326953 188.72440418 39.10546875 187.4140625 C26.64197801 183.04258725 13.01120849 180.16149743 -0.20703125 179.7265625 C-1.36589844 179.68660156 -2.52476562 179.64664063 -3.71875 179.60546875 C-46.10425471 178.88850001 -83.38124806 193.91871997 -114.20703125 222.7265625 Z M66.79296875 201.7265625 C66.79296875 203.0465625 66.79296875 204.3665625 66.79296875 205.7265625 C68.8836237 207.70847848 68.8836237 207.70847848 71.66796875 209.4765625 C72.68246094 210.18296875 73.69695313 210.889375 74.7421875 211.6171875 C75.74894531 212.31328125 76.75570312 213.009375 77.79296875 213.7265625 C91.97172253 223.9963287 104.50459225 236.88062039 113.79296875 251.7265625 C114.17501465 252.32871582 114.55706055 252.93086914 114.95068359 253.55126953 C132.26470953 281.25805947 141.52657277 318.10992829 135.79296875 350.7265625 C135.13296875 351.7165625 134.47296875 352.7065625 133.79296875 353.7265625 C134.10514515 356.37288537 134.10514515 356.37288537 134.79296875 358.7265625 C137.13830826 359.49612386 137.13830826 359.49612386 139.79296875 359.7265625 C141.79296875 358.7265625 141.79296875 358.7265625 142.79296875 356.7265625 C142.46072767 355.05967776 142.12722693 353.39304393 141.79296875 351.7265625 C141.87758367 349.99332131 142.0290123 348.26263438 142.23046875 346.5390625 C146.0532117 304.69276973 133.23237716 265.1148378 106.79296875 232.7265625 C106.16390625 231.95441406 105.53484375 231.18226563 104.88671875 230.38671875 C100.90724184 225.67465632 96.49367565 221.7026903 91.79296875 217.7265625 C90.50117647 216.56003492 89.20951032 215.39336766 87.91796875 214.2265625 C78.3445108 205.50439404 78.3445108 205.50439404 66.79296875 201.7265625 Z M-5.20703125 207.7265625 C-7.49431859 209.56540131 -7.49431859 209.56540131 -7.33203125 212.3515625 C-7.29078125 213.1353125 -7.24953125 213.9190625 -7.20703125 214.7265625 C-4.31986106 216.1701476 -2.7440399 216.82896153 0.4765625 216.21484375 C4.42361834 215.63371068 7.85645678 216.12065876 11.73046875 216.8515625 C12.47482178 216.98989502 13.2191748 217.12822754 13.98608398 217.27075195 C43.92122925 223.15478656 70.6853712 240.41256183 87.79296875 265.7265625 C93.027064 273.9388862 97.39176353 282.36221199 100.625 291.56640625 C101.59196282 293.91583148 101.59196282 293.91583148 103.9296875 294.54296875 C104.54457031 294.60355469 105.15945313 294.66414063 105.79296875 294.7265625 C107.10783244 291.74167079 106.72547649 290.52337775 105.67578125 287.36328125 C105.10558999 286.03997853 104.51849687 284.72387705 103.91796875 283.4140625 C103.43976685 282.35662842 103.43976685 282.35662842 102.9519043 281.27783203 C88.85626284 250.87466989 64.25360826 227.54079771 32.67529297 215.94921875 C23.18349691 212.69061096 13.53018834 210.78660031 3.62109375 209.3046875 C-0.20703125 208.7265625 -0.20703125 208.7265625 -3.09765625 208.0234375 C-4.14179687 207.87648438 -4.14179687 207.87648438 -5.20703125 207.7265625 Z M-32.70703125 211.3515625 C-33.57416748 211.5254248 -34.44130371 211.69928711 -35.3347168 211.87841797 C-42.42150854 213.38574878 -49.03144229 215.62095515 -55.7265625 218.359375 C-59.20703125 219.7265625 -59.20703125 219.7265625 -63.03125 220.78125 C-66.26834617 221.47055227 -66.26834617 221.47055227 -68.20703125 223.7265625 C-67.84021467 226.66109511 -67.34265879 227.59093496 -65.20703125 229.7265625 C-62.74754339 229.70267092 -62.74754339 229.70267092 -60.20703125 228.7265625 C-59.66304688 228.11167969 -59.1190625 227.49679687 -58.55859375 226.86328125 C-55.34775188 223.94578872 -52.04808151 222.95567725 -47.95703125 221.6640625 C-47.16578857 221.40729736 -46.3745459 221.15053223 -45.55932617 220.88598633 C-35.61783247 217.76632876 -25.51283738 216.16858159 -15.20703125 214.7265625 C-14.61633111 212.78052976 -14.61633111 212.78052976 -14.20703125 210.7265625 C-15.38084528 209.32844503 -15.38084528 209.32844503 -18.67578125 209.5625 C-23.46690723 209.6285698 -28.02067684 210.3993532 -32.70703125 211.3515625 Z M-88.20703125 238.7265625 C-89.05136719 239.42265625 -89.89570313 240.11875 -90.765625 240.8359375 C-113.19235608 259.92557099 -126.67338022 288.80321594 -130.20703125 317.7265625 C-130.44274755 322.08599352 -130.44357145 326.42448506 -130.39453125 330.7890625 C-130.39388672 331.88283203 -130.39324219 332.97660156 -130.39257812 334.10351562 C-130.35988906 340.20910741 -130.07295309 346.21570744 -129.41918945 352.28686523 C-129.20243188 354.77945263 -129.17214091 357.2259017 -129.20703125 359.7265625 C-126.87848662 360.92494459 -126.87848662 360.92494459 -124.20703125 361.7265625 C-122.72203125 360.7365625 -122.72203125 360.7365625 -121.20703125 359.7265625 C-120.68127445 355.83596216 -121.76589249 353.28702297 -123.20703125 349.7265625 C-128.50676783 321.01025934 -120.97579553 290.12308238 -105.03662109 265.95166016 C-102.58217848 262.41392004 -99.937405 259.05357348 -97.20703125 255.7265625 C-96.34851563 254.63988281 -96.34851563 254.63988281 -95.47265625 253.53125 C-90.73570595 247.77923892 -85.03377012 243.32846136 -79.20703125 238.7265625 C-77.97378077 237.71066651 -76.74365672 236.69093553 -75.51953125 235.6640625 C-74.75640625 235.0246875 -73.99328125 234.3853125 -73.20703125 233.7265625 C-73.70203125 231.7465625 -73.70203125 231.7465625 -74.20703125 229.7265625 C-79.87072014 229.7265625 -84.07077541 235.17341519 -88.20703125 238.7265625 Z M-126.20703125 232.7265625 C-126.77164062 233.90863281 -127.33625 235.09070313 -127.91796875 236.30859375 C-129.58685776 239.64710439 -131.44331844 242.66221169 -133.60693359 245.69604492 C-142.39202385 258.01582972 -151.27420107 273.71262451 -154.20703125 288.7265625 C-153.87703125 289.7165625 -153.54703125 290.7065625 -153.20703125 291.7265625 C-151.88703125 291.7265625 -150.56703125 291.7265625 -149.20703125 291.7265625 C-149.01181885 291.17943604 -148.81660645 290.63230957 -148.61547852 290.06860352 C-142.7649184 273.82307894 -136.35413108 258.40950672 -125.640625 244.73046875 C-124.01308528 242.86611186 -124.01308528 242.86611186 -124.20703125 240.7265625 C-122.88703125 240.3965625 -121.56703125 240.0665625 -120.20703125 239.7265625 C-119.52744522 237.32936818 -119.52744522 237.32936818 -119.20703125 234.7265625 C-121.04587006 232.43927516 -121.04587006 232.43927516 -123.83203125 232.6015625 C-124.61578125 232.6428125 -125.39953125 232.6840625 -126.20703125 232.7265625 Z M-43.12890625 260.01953125 C-52.13925003 271.7566896 -54.5421978 284.2291591 -53.20703125 298.7265625 C-51.14029052 308.81830625 -46.41026668 316.44932123 -39.20703125 323.7265625 C-38.33377197 324.28351807 -37.4605127 324.84047363 -36.56079102 325.41430664 C-34.20703125 327.7265625 -34.20703125 327.7265625 -33.86499023 331.02075195 C-33.97157891 332.35870378 -34.10737731 333.69451447 -34.265625 335.02734375 C-34.3312413 335.76382645 -34.3968576 336.50030914 -34.46446228 337.2591095 C-34.61147592 338.88052173 -34.77028518 340.50089567 -34.93914795 342.12017822 C-35.21699306 344.82348649 -35.4551423 347.5279702 -35.68408203 350.23583984 C-36.18588057 356.13110989 -36.7249911 362.02260658 -37.26953125 367.9140625 C-37.63850238 371.90727722 -38.00392035 375.90079405 -38.3671875 379.89453125 C-38.45154556 380.79455368 -38.53590363 381.69457611 -38.62281799 382.62187195 C-38.69967331 383.46748184 -38.77652863 384.31309174 -38.85571289 385.18432617 C-38.95777794 386.28655769 -38.95777794 386.28655769 -39.06190491 387.41105652 C-39.23531827 390.17788486 -39.20703125 392.95430507 -39.20703125 395.7265625 C-19.07703125 395.7265625 1.05296875 395.7265625 21.79296875 395.7265625 C21.79360792 387.99922815 21.79360792 387.99922815 21.19116211 380.41577148 C21.06200912 379.26104843 20.93285614 378.10632538 20.79978943 376.91661072 C20.59338585 375.08810326 20.59338585 375.08810326 20.3828125 373.22265625 C20.04117694 369.92349855 19.70465802 366.62390181 19.37090206 363.32394314 C19.0210059 359.89390983 18.65376843 356.4673815 18.25024414 353.04321289 C17.93408822 350.3532364 17.64389681 347.66292745 17.38270569 344.96705627 C17.13786544 342.43997684 16.85702372 339.91605595 16.53562927 337.39756775 C15.80261799 329.02204865 15.80261799 329.02204865 18.70831299 325.22108459 C20.97925724 323.20876028 23.32044014 321.47905878 25.79296875 319.7265625 C33.39768645 310.25288876 37.01219044 299.8568296 36.79296875 287.7265625 C35.32202108 274.95930794 30.41823074 262.86527052 20.16796875 254.7265625 C-0.01020278 240.22817258 -25.62123001 241.53570759 -43.12890625 260.01953125 Z M106.79296875 300.7265625 C105.1267545 301.8910826 105.1267545 301.8910826 103.79296875 303.7265625 C104.04385952 306.65362145 104.95018575 309.23348271 105.8203125 312.0390625 C109.88876706 328.53609241 107.72468374 348.58983988 102.79296875 364.7265625 C102.58397949 365.41459961 102.37499023 366.10263672 102.15966797 366.81152344 C97.49979429 381.56255429 90.00449005 395.10450032 79.79296875 406.7265625 C79.13039063 407.53222656 78.4678125 408.33789062 77.78515625 409.16796875 C72.88227117 414.94830744 67.51475087 419.54123374 61.40185547 423.97241211 C58.15031532 426.38340889 56.49127249 427.72401245 55.79296875 431.7265625 C56.78296875 432.0565625 57.77296875 432.3865625 58.79296875 432.7265625 C83.55553466 418.96486206 100.58752885 392.16288578 108.79296875 365.7265625 C109.00469727 365.04770996 109.21642578 364.36885742 109.43457031 363.66943359 C115.17582734 344.22103915 113.58589112 322.67835429 111.79296875 302.7265625 C109.31796875 301.7365625 109.31796875 301.7365625 106.79296875 300.7265625 Z M-159.20703125 303.7265625 C-159.2647102 305.22026137 -159.26139924 306.71644546 -159.23046875 308.2109375 C-159.195632 311.59610871 -159.24400026 314.92869863 -159.49609375 318.3046875 C-162.57641008 359.98660482 -149.63506984 399.41583098 -122.3828125 431.04296875 C-114.05722758 440.46748947 -105.01958073 448.66803837 -94.76953125 455.9140625 C-94.08286377 456.40849854 -93.39619629 456.90293457 -92.6887207 457.41235352 C-92.03605225 457.86022217 -91.38338379 458.30809082 -90.7109375 458.76953125 C-90.13158447 459.17196045 -89.55223145 459.57438965 -88.95532227 459.98901367 C-86.68990696 460.94472093 -85.48222754 460.52155569 -83.20703125 459.7265625 C-83.31767115 457.83238243 -83.31767115 457.83238243 -84.20703125 455.7265625 C-86.49122895 453.89879231 -86.49122895 453.89879231 -89.39453125 452.2265625 C-96.94792925 447.39778306 -103.56646558 441.73053259 -110.20703125 435.7265625 C-111.03203125 434.98664063 -111.85703125 434.24671875 -112.70703125 433.484375 C-132.69994875 414.56250665 -145.36337767 387.28581345 -151.20703125 360.7265625 C-151.41972656 359.77394531 -151.63242187 358.82132812 -151.8515625 357.83984375 C-154.84970887 342.37458513 -156.25823049 323.7749269 -151.20703125 308.7265625 C-151.46721293 305.39960125 -151.46721293 305.39960125 -153.20703125 302.7265625 C-156.49598018 302.32027283 -156.49598018 302.32027283 -159.20703125 303.7265625 Z M-188.20703125 337.7265625 C-189.79704853 339.31657978 -189.41615192 340.88726521 -189.45703125 343.1015625 C-189.01248022 377.64317752 -174.32271225 413.73117367 -153.20703125 440.7265625 C-152.79259766 441.25668945 -152.37816406 441.78681641 -151.95117188 442.33300781 C-131.37680169 468.28223284 -104.622356 489.60715267 -73.1953125 500.8046875 C-71.03568986 501.80600566 -69.77468231 502.95486797 -68.20703125 504.7265625 C-65.69737511 504.02316684 -65.69737511 504.02316684 -63.20703125 502.7265625 C-62.04937275 500.84699006 -62.04937275 500.84699006 -62.20703125 498.7265625 C-63.13696592 496.8754322 -63.13696592 496.8754322 -65.20703125 495.7265625 C-66.23054688 495.60539063 -67.2540625 495.48421875 -68.30859375 495.359375 C-72.8189342 494.62723557 -76.44922001 493.17417262 -80.58203125 491.2890625 C-81.36151123 490.93634277 -82.14099121 490.58362305 -82.9440918 490.22021484 C-101.6656467 481.54699475 -117.3234099 469.89442271 -132.20703125 455.7265625 C-133.34205078 454.68822266 -133.34205078 454.68822266 -134.5 453.62890625 C-164.0950945 425.65103002 -180.76941352 383.74813113 -183.5625 343.64453125 C-183.77519531 342.35160156 -183.98789062 341.05867188 -184.20703125 339.7265625 C-186.17440896 338.44260457 -186.17440896 338.44260457 -188.20703125 337.7265625 Z M165.79296875 340.7265625 C165.79296875 342.9701745 165.80552498 345.21416277 165.86328125 347.45703125 C165.08783587 383.51524138 146.25682768 422.82143832 121.73046875 448.6484375 C119.71382868 450.75626436 119.71382868 450.75626436 117.75 453.30078125 C114.81506924 456.93868944 111.37717077 459.74245519 107.79296875 462.7265625 C107.28362793 463.15888184 106.77428711 463.59120117 106.24951172 464.03662109 C88.63531739 478.93621147 68.96689353 490.13723433 47.13671875 497.62109375 C45.9765625 498.16830078 45.9765625 498.16830078 44.79296875 498.7265625 C44.46296875 499.7165625 44.13296875 500.7065625 43.79296875 501.7265625 C45.41131355 503.00134716 45.41131355 503.00134716 47.79296875 503.7265625 C71.29560344 498.42432045 95.19417662 482.34889421 112.45703125 465.94140625 C114.48694748 464.01671979 116.56752328 462.24664645 118.73046875 460.4765625 C132.74051503 448.24648112 143.04608989 431.94623972 151.79296875 415.7265625 C152.40140625 414.60507812 153.00984375 413.48359375 153.63671875 412.328125 C163.72339039 392.9953377 168.92955024 371.90465493 172.21484375 350.44921875 C172.55901313 348.23304697 172.95378868 346.02238054 173.453125 343.8359375 C173.56527344 343.13984375 173.67742187 342.44375 173.79296875 341.7265625 C172.58377993 339.85015831 172.58377993 339.85015831 170.79296875 338.7265625 C168.46939364 338.54166243 168.46939364 338.54166243 165.79296875 340.7265625 Z M-123.20703125 367.7265625 C-124.59911431 371.90281168 -122.88948704 374.42711171 -121.14453125 378.2265625 C-120.8194458 378.94561768 -120.49436035 379.66467285 -120.15942383 380.40551758 C-115.02124145 391.63721017 -108.95103997 401.15445992 -101.20703125 410.7265625 C-100.64757812 411.43039062 -100.088125 412.13421875 -99.51171875 412.859375 C-79.6529388 437.05887188 -49.16053527 448.36801936 -19.29125977 453.36010742 C-17.5886217 453.65947017 -15.89873281 454.03057963 -14.21484375 454.421875 C-13.55226563 454.52242187 -12.8896875 454.62296875 -12.20703125 454.7265625 C-10.37155135 453.39277675 -10.37155135 453.39277675 -9.20703125 451.7265625 C-9.98833196 449.23103766 -9.98833196 449.23103766 -11.20703125 446.7265625 C-14.18471633 445.47115895 -14.18471633 445.47115895 -17.3046875 446.26171875 C-22.0808791 446.83065449 -25.97435869 446.15239189 -30.64453125 445.1640625 C-31.52197998 444.98133789 -32.39942871 444.79861328 -33.3034668 444.61035156 C-62.43204267 438.21891502 -88.66881592 421.1678154 -105.14453125 396.12109375 C-110.66136359 387.04130719 -115.62043184 377.75488321 -119.20703125 367.7265625 C-120.52703125 367.7265625 -121.84703125 367.7265625 -123.20703125 367.7265625 Z M133.79296875 369.7265625 C131.40603968 370.63702802 131.40603968 370.63702802 130.56640625 373.98046875 C130.09727315 375.41569366 129.63135928 376.85197321 129.16796875 378.2890625 C124.67466506 391.53948063 118.35929761 403.33720358 110.578125 414.93359375 C108.68382872 417.64654226 108.68382872 417.64654226 107.79296875 420.7265625 C106.96796875 421.0359375 106.14296875 421.3453125 105.29296875 421.6640625 C102.66000983 422.45934325 102.66000983 422.45934325 101.85546875 424.6640625 C101.58400153 427.04106342 101.58400153 427.04106342 103.79296875 429.7265625 C106.29296875 430.14322917 106.29296875 430.14322917 108.79296875 429.7265625 C110.98400199 427.53552926 111.74024733 425.4645824 112.90478516 422.63964844 C114.38477785 419.4518467 116.44902585 416.70663698 118.48046875 413.8515625 C125.25963839 403.983151 137.90110396 384.87026177 136.5390625 372.40234375 C135.91484015 370.52282886 135.91484015 370.52282886 133.79296875 369.7265625 Z M39.79296875 436.7265625 C27.04008324 443.53866283 11.97400971 445.85219882 -2.20703125 447.7265625 C-2.53703125 448.7165625 -2.86703125 449.7065625 -3.20703125 450.7265625 C-1.40155874 452.97176161 -1.40155874 452.97176161 1.12890625 452.87890625 C14.95109152 451.90175948 28.80273456 448.59683349 41.3828125 442.7421875 C43.79296875 441.7265625 43.79296875 441.7265625 46.484375 441.2109375 C48.97633329 440.9077574 48.97633329 440.9077574 50.79296875 438.7265625 C50.47255478 436.12375682 50.47255478 436.12375682 49.79296875 433.7265625 C44.85974084 432.03517007 43.63377682 433.58151201 39.79296875 436.7265625 Z M88.91796875 439.6640625 C56.38475674 466.62738607 18.22645189 479.94109056 -24.20703125 476.0390625 C-58.59026495 472.45574959 -58.59026495 472.45574959 -66.81640625 464.08984375 C-67.2753125 463.63996094 -67.73421875 463.19007813 -68.20703125 462.7265625 C-70.86169174 462.95700114 -70.86169174 462.95700114 -73.20703125 463.7265625 C-73.88661728 466.12375682 -73.88661728 466.12375682 -74.20703125 468.7265625 C-71.78794569 471.14564806 -70.39526999 471.30328877 -67.08203125 472.0390625 C-62.80326245 473.04493058 -58.63281882 474.19834014 -54.45629883 475.57006836 C-17.13683493 487.82456078 23.83015858 484.26798591 58.98046875 466.9140625 C71.83232323 460.34362651 83.07800069 452.38111275 93.79296875 442.7265625 C94.41429687 442.17097656 95.035625 441.61539062 95.67578125 441.04296875 C96.04445313 440.60855469 96.413125 440.17414063 96.79296875 439.7265625 C96.56539144 437.56357039 96.56539144 437.56357039 95.79296875 435.7265625 C92.66545769 435.7265625 91.26788365 437.67174334 88.91796875 439.6640625 Z M23.9921875 502.16015625 C22.67549893 502.69450171 21.37191013 503.26264779 20.0859375 503.8671875 C14.39583146 505.99976557 8.25345877 505.88567999 2.25390625 505.89453125 C1.04983627 505.89952385 1.04983627 505.89952385 -0.17855835 505.90461731 C-1.87114901 505.90965594 -3.5637495 505.91202659 -5.25634766 505.91186523 C-7.80388436 505.91403849 -10.35097794 505.93219042 -12.8984375 505.95117188 C-21.29687558 505.97925019 -29.33270598 505.7107672 -37.62329102 504.16967773 C-40.88574205 503.6101626 -43.90857784 503.57314606 -47.20703125 503.7265625 C-47.20703125 505.0465625 -47.20703125 506.3665625 -47.20703125 507.7265625 C-28.95942613 514.37469912 -6.8041376 513.48236187 12.23046875 511.7890625 C13.27912109 511.70205078 14.32777344 511.61503906 15.40820312 511.52539062 C19.94271531 511.13572853 24.33836918 510.68531234 28.79296875 509.7265625 C29.12296875 508.0765625 29.45296875 506.4265625 29.79296875 504.7265625 C27.97336763 502.67951123 26.79491703 501.48531248 23.9921875 502.16015625 Z " fill="#FF782D" transform="translate(531.20703125,100.2734375)"/>
<path d="M0 0 C27.15332142 -1.21380741 56.70884472 5.49639048 78 23 C79.24330078 23.93392578 79.24330078 23.93392578 80.51171875 24.88671875 C91.65862838 34.35371735 98.89046115 49.63257829 100.30371094 64.11157227 C100.43770929 67.41392649 100.46765258 70.69508711 100.4375 74 C100.42920166 75.18335938 100.42090332 76.36671875 100.41235352 77.5859375 C99.51810925 124.53217014 69.07518064 168.88282861 43 206 C42.39406006 206.87035889 42.39406006 206.87035889 41.77587891 207.75830078 C34.5548686 218.12761251 26.82212864 228.07943255 19 238 C18.24589844 238.96035156 17.49179687 239.92070312 16.71484375 240.91015625 C12.60827265 246.09607253 8.35637025 251.14917383 4.06567383 256.18261719 C1.30780199 259.42537382 -1.37447853 262.71065599 -4 266.0625 C-7.90605044 270.99519204 -12.13339251 275.58665407 -16.41015625 280.1953125 C-18.4785762 282.43532083 -20.50555315 284.69466815 -22.5 287 C-26.73409014 291.87775229 -31.11817478 296.61756481 -35.49560547 301.36621094 C-37.04271552 303.04638952 -38.58604425 304.72998291 -40.12890625 306.4140625 C-41.16907527 307.54705457 -42.20943803 308.67986881 -43.25 309.8125 C-43.7555542 310.36405762 -44.2611084 310.91561523 -44.78198242 311.48388672 C-47.43548962 314.36314071 -50.14793953 317.13107562 -53 319.8125 C-59.51865071 326.33221255 -61.77332352 335.72981431 -64.68603516 344.24627686 C-86.75993535 408.61234987 -115.72723548 470.64470157 -150.34765625 529.19677734 C-151.83768822 531.72463595 -153.31191784 534.2608596 -154.78125 536.80078125 C-164.06897124 552.71995223 -174.47468226 567.9251393 -184.78210449 583.19366455 C-186.47712632 585.70765529 -188.16376629 588.22724834 -189.8515625 590.74609375 C-196.39885495 600.46972863 -203.30830644 609.84950681 -210.51708984 619.09228516 C-211.88280159 620.84922813 -213.23570232 622.61490155 -214.58203125 624.38671875 C-220.72132997 632.45012725 -227.07860534 640.32139144 -233.49853516 648.16210938 C-234.84196561 649.80655563 -236.17738431 651.45753952 -237.51171875 653.109375 C-241.82372725 658.43730173 -246.26898927 663.59914911 -250.8828125 668.66796875 C-252.78051169 670.75823889 -254.64733415 672.86986115 -256.5 675 C-268.99782487 689.31569031 -282.01891533 703.10983013 -295.4375 716.5625 C-296.36071045 717.49030273 -297.2839209 718.41810547 -298.23510742 719.37402344 C-302.76334422 723.89201814 -307.34200738 728.27692811 -312.19702148 732.44213867 C-314.97483755 734.84230716 -317.63536299 737.36391647 -320.3125 739.875 C-325.13236077 744.35867269 -330.07503978 748.6162423 -335.2109375 752.73828125 C-337.68692248 754.74611781 -340.11416657 756.80065498 -342.5300293 758.88012695 C-350.75189281 765.94164175 -359.3134834 772.52234601 -368 779 C-368.68626465 779.51256348 -369.3725293 780.02512695 -370.07958984 780.55322266 C-387.45506062 793.46625351 -405.51183486 805.64963101 -424.0625 816.8125 C-424.82804199 817.27342041 -425.59358398 817.73434082 -426.38232422 818.20922852 C-427.83448787 819.06813995 -429.29593991 819.9115791 -430.76708984 820.73754883 C-432.363571 821.64017337 -433.93467681 822.58827931 -435.48681641 823.56518555 C-441.687763 827.19750698 -441.687763 827.19750698 -445.12329102 826.68041992 C-447.34289772 825.70398638 -449.23931493 824.54291507 -451.25 823.1875 C-452.38284424 822.4912854 -452.38284424 822.4912854 -453.53857422 821.78100586 C-455.17818517 820.76460674 -456.80598582 819.72896331 -458.42285156 818.67675781 C-461.09011421 816.94136942 -463.78630076 815.26037707 -466.4921875 813.5859375 C-477.54123726 806.70525318 -488.37854125 799.5228872 -499 792 C-499.72670898 791.4858252 -500.45341797 790.97165039 -501.20214844 790.44189453 C-511.35676893 783.23406263 -521.30588492 775.81645367 -531 768 C-531.94101562 767.24203125 -532.88203125 766.4840625 -533.8515625 765.703125 C-543.59222192 757.78708478 -553.2134273 749.72455822 -562.48828125 741.265625 C-564.58638922 739.37308593 -566.70452616 737.51090483 -568.8359375 735.65625 C-579.2853619 726.52745757 -589.23785401 716.85549998 -599.0625 707.0625 C-599.84729736 706.28229492 -600.63209473 705.50208984 -601.44067383 704.69824219 C-605.49489449 700.63317789 -609.40138157 696.50798718 -613.09936523 692.11499023 C-615.94117105 688.95268274 -618.97589012 685.98706276 -622 683 C-623.14549316 683.35715088 -624.29098633 683.71430176 -625.47119141 684.08227539 C-648.49322586 691.24061229 -671.3989101 698.01862242 -695 703 C-696.82300555 703.39933403 -698.64592835 703.79904612 -700.46875 704.19921875 C-712.87513733 706.860292 -725.39368559 708.59354367 -738 710 C-738.83152588 710.09716309 -739.66305176 710.19432617 -740.51977539 710.29443359 C-749.10048857 711.19834986 -757.69377109 711.2434076 -766.3125 711.25 C-767.10824432 711.25067474 -767.90398865 711.25134949 -768.72384644 711.25204468 C-805.06121172 711.20325867 -841.28335582 703.35240331 -868 677 C-871.54516901 673.17045313 -874.80856222 669.12797708 -878 665 C-874.02434053 665 -872.30538256 666.52155054 -868.9375 668.625 C-823.06161269 695.84380758 -760.10339457 683.31557463 -711.5390625 670.9753418 C-692.73512946 666.11629886 -674.3579358 660.06759836 -656.019104 653.69799805 C-653.00054881 652.6544928 -649.97421466 651.63403331 -646.94921875 650.609375 C-585.70356195 629.58207272 -525.38537566 601.08910736 -468.8046875 569.65234375 C-464.09974618 567.03859265 -459.33809279 564.54409646 -454.5625 562.0625 C-444.5613048 556.84261024 -434.76561001 551.27295539 -424.96582031 545.68652344 C-421.98944449 543.99399757 -419.00753938 542.31167465 -416.0234375 540.6328125 C-404.60803689 534.20988512 -393.25120951 527.70634041 -382 521 C-381.08557129 520.45649902 -380.17114258 519.91299805 -379.22900391 519.35302734 C-364.63943807 510.67551088 -350.16652123 501.82849764 -335.81005859 492.77050781 C-333.23822542 491.15009651 -330.66092936 489.53881954 -328.08203125 487.9296875 C-315.13189079 479.80909056 -302.41086176 471.34453602 -289.6875 462.875 C-288.7923468 462.27998688 -287.8971936 461.68497375 -286.97491455 461.07192993 C-271.94405832 451.07414618 -257.0813092 440.8565136 -242.5625 430.125 C-241.78084473 429.5482251 -240.99918945 428.9714502 -240.19384766 428.37719727 C-233.17544912 423.17433909 -226.27885945 417.8218296 -219.40234375 412.43359375 C-215.8126905 409.62385192 -212.19157429 406.85876749 -208.55761719 404.10668945 C-199.80297496 397.47215462 -191.29965265 390.57001952 -182.85839844 383.54248047 C-180.3360021 381.44887825 -177.79345419 379.38043884 -175.25 377.3125 C-170.73440758 373.62476619 -166.28256241 369.86638643 -161.84155273 366.08959961 C-158.36700276 363.13982186 -154.85515356 360.24310035 -151.3125 357.375 C-146.86096192 353.75165505 -142.57617545 349.98036128 -138.33203125 346.1171875 C-136.24176111 344.21948831 -134.13013885 342.35266585 -132 340.5 C-128.18834482 337.1801713 -124.43448295 333.79878862 -120.6875 330.40625 C-118.51943634 328.46507672 -116.33562143 326.54712949 -114.140625 324.63671875 C-110.27930913 321.26213096 -106.49291005 317.81772623 -102.75 314.3125 C-102.08250732 313.68746582 -101.41501465 313.06243164 -100.72729492 312.41845703 C-92.35266399 304.51923348 -84.25285473 296.34137766 -76.1496582 288.16552734 C-72.09962637 284.08559749 -68.02553644 280.03017407 -63.9453125 275.98046875 C-62.49911726 274.54165542 -61.05340855 273.10235519 -59.60791016 271.6628418 C-58.623788 270.68374233 -57.63876938 269.70554305 -56.65283203 268.72827148 C-51.4283531 263.54830449 -46.28861031 258.34265458 -41.50244141 252.74975586 C-39.28012392 250.16162628 -36.95011216 247.68367897 -34.625 245.1875 C-30.34839261 240.55871864 -26.30459032 235.79259202 -22.35546875 230.87890625 C-20.69749817 228.85249776 -19.02694134 226.86823139 -17.30078125 224.90234375 C-9.30806855 215.79531459 -2.00625046 206.256025 5.16699219 196.49316406 C6.88718236 194.15344882 8.61856201 191.82241929 10.3515625 189.4921875 C36.4655328 154.13436882 67.90704206 106.89640004 63.5703125 60.71484375 C60.94752181 43.63077561 52.70183135 30.03401347 39.59375 18.96875 C37.12975961 17.16182371 34.62580347 15.56289008 32 14 C30.89011719 13.33226562 29.78023437 12.66453125 28.63671875 11.9765625 C19.49586102 6.69719327 10.20095358 3.5970604 0 1 C0 0.67 0 0.34 0 0 Z " fill="#A7A9AC" transform="translate(965,157)"/>
</svg>
